<svg id="Capa_1" enable-background="new 0 0 512 512" height="512" viewBox="0 0 512 512" width="512" xmlns="http://www.w3.org/2000/svg"><g><path d="m393.219 45h-360c-8.285 0-15 6.716-15 15v437c0 8.284 6.715 15 15 15h360c8.284 0 15-6.716 15-15v-437c0-8.284-6.716-15-15-15z" fill="#edf5ff"/><path d="m393.219 45h-180v467h180c8.284 0 15-6.716 15-15v-437c0-8.284-6.716-15-15-15z" fill="#d5e8fe"/><g fill="#b5dbff"><path d="m253.219 437h-80c-8.285 0-15-6.716-15-15s6.715-15 15-15h80c8.284 0 15 6.716 15 15s-6.716 15-15 15z"/><path d="m253.219 377h-80c-8.285 0-15-6.716-15-15s6.715-15 15-15h80c8.284 0 15 6.716 15 15s-6.716 15-15 15z"/><path d="m288.219 0h-150c-8.285 0-15 6.716-15 15v90c0 8.284 6.715 15 15 15h150c8.284 0 15-6.716 15-15v-90c0-8.284-6.716-15-15-15z"/></g><path d="m288.219 0h-75v120h75c8.284 0 15-6.716 15-15v-90c0-8.284-6.716-15-15-15z" fill="#9bbcfd"/><path d="m253.219 347h-40v30h40c8.284 0 15-6.716 15-15s-6.716-15-15-15z" fill="#9bbcfd"/><path d="m253.219 407h-40v30h40c8.284 0 15-6.716 15-15s-6.716-15-15-15z" fill="#9bbcfd"/><path d="m279.927 206.583-60-30c-4.223-2.111-9.193-2.111-13.416 0l-60 30c-5.082 2.541-8.292 7.735-8.292 13.417v75c0 8.284 6.715 15 15 15h45.004l14.996-10 15 10h45c8.284 0 15-6.716 15-15v-75c0-5.682-3.21-10.876-8.292-13.417z" fill="#d5e8fe"/><path d="m279.927 206.583-60-30c-2.112-1.056-4.409-1.583-6.708-1.583v125l15 10h45c8.284 0 15-6.716 15-15v-75c0-5.682-3.21-10.876-8.292-13.417z" fill="#b5dbff"/><path d="m293.207 225.003c-2.254 0-4.543-.51-6.696-1.587l-73.292-36.646-73.292 36.646c-7.411 3.705-16.42.702-20.124-6.708-3.705-7.41-.702-16.42 6.708-20.125l80-40c4.223-2.111 9.193-2.111 13.416 0l80 40c7.41 3.705 10.413 12.715 6.708 20.125-2.628 5.256-7.926 8.295-13.428 8.295z" fill="#f69"/><path d="m299.927 196.583-80-40c-2.112-1.056-4.409-1.583-6.708-1.583v31.77l73.292 36.646c2.153 1.077 4.442 1.587 6.696 1.587 5.502 0 10.8-3.039 13.428-8.295 3.705-7.409.702-16.42-6.708-20.125z" fill="#e62e6b"/><path d="m213.219 265c-8.285 0-15 6.716-15 15v30h30v-30c0-8.284-6.716-15-15-15z" fill="#5d6b98"/><path d="m213.219 265v45h15v-30c0-8.284-6.716-15-15-15z" fill="#4d5a7f"/><path d="m489.388 295.328-49.496-49.498c-2.813-2.813-6.628-4.394-10.606-4.394-3.979 0-7.794 1.58-10.607 4.393l-116.067 116.067c-2.814 2.813-4.393 6.628-4.393 10.607v49.497c0 8.284 6.715 15 15 15h49.498c3.979 0 7.794-1.58 10.606-4.394l116.065-116.066c5.858-5.857 5.858-15.355 0-21.212z" fill="#5d6b98"/><path d="m489.388 295.328-24.748-24.749-162.028 162.027c2.714 2.715 6.464 4.394 10.607 4.394h49.498c3.979 0 7.794-1.58 10.606-4.394l116.065-116.066c5.858-5.857 5.858-15.355 0-21.212z" fill="#4d5a7f"/></g></svg>