<svg id="Layer_1" height="512" viewBox="0 0 512 512" width="512" xmlns="http://www.w3.org/2000/svg" data-name="Layer 1"><path d="m236.52 86.39h-147.1v337.42l236.79.69.457-338.04z" fill="#678dba"/><path d="m89.42 86.39h30v337.42h-30z" fill="#88b4d8"/><path d="m78.26 54.65a15.87 15.87 0 0 0 0 31.74l249.62.07 1.96-31.5z" fill="#5b7baa"/><path d="m322.06 16.3a86.774 86.774 0 0 1 4.13 173.45c-1.37.07-2.75.1-4.13.1a86.775 86.775 0 1 1 0-173.55z" fill="#fb6771"/><path d="m355.74 101.98a39.04 39.04 0 1 1 -67.36 0l33.68-57.5z" fill="#fadf4a"/><path d="m323.79 423.86-245.53-.05a15.87 15.87 0 0 0 0 31.74h248.5z" fill="#5b7baa"/><path d="m337.37 239.23h-259.11a15.87 15.87 0 1 0 0 31.74h259.11a15.87 15.87 0 0 0 0-31.74z" fill="#5b7baa"/><path d="m429.53 299.29a6.194 6.194 0 0 0 -4.85-3.75c-7.27-1.12-14.72-7.05-18.88-8.74-6.52-2.64-10.61 1.11-13.89 4.6-1.85 1.97-6.27 4.2-7.92 4.85-.34.13-.7.25-1.05.36-6.55 1.93-11.01 1.3-16.93-4.05-6.93-6.26-12.47-4.15-15.04-2.46-2.06 1.34-3.13 5.64-5.34 9.39-1.28 2.18-2.53 3.27-4.57 3.63a7.566 7.566 0 0 1 -4.5-.57c-2.45-1.15-4.17-3.31-9.93-6.52-.14-.08-.28-.15-.42-.22a10.781 10.781 0 0 0 -12.6 17.13 72.457 72.457 0 0 1 7.42 8.86 82.548 82.548 0 0 1 12.14 26.55l64.79.05.01-.05a141.75 141.75 0 0 1 13.65-25.75c5.7-8.41 10.92-12.07 16.03-16.14a6.163 6.163 0 0 0 1.88-7.17z" fill="#55d8d8"/><path d="m447.55 419.01c-.14-.53-.28-1.05-.43-1.58a75.621 75.621 0 0 0 -47.27-50.87l-.02-.06-69.18.46c-7.69 4.11-36.63 14.75-47.75 45.58-.47 1.3-.9 2.58-1.3 3.87a61.156 61.156 0 0 0 -1.81 7.45 59.74 59.74 0 0 0 2.97 31.69 61.826 61.826 0 0 0 57.8 40.15h47.52c40.07 0 69.78-38.17 59.47-76.69z" fill="#55d8d8"/><path d="m265.28 103.08a86.778 86.778 0 0 1 71.8-85.481 86.88 86.88 0 0 0 -87.24 37.361 86.776 86.776 0 0 0 72.22 134.89c1.38 0 2.76-.03 4.13-.1a86.925 86.925 0 0 0 10.8-1.207 86.8 86.8 0 0 1 -71.71-85.463z" fill="#e75163"/><path d="m313.02 121.7a38.981 38.981 0 0 1 5.36-19.72l18.68-31.891-15-25.609-33.68 57.5a39.036 39.036 0 0 0 48.678 55.774 39.049 39.049 0 0 1 -24.038-36.054z" fill="#edcf54"/><path d="m351.03 321.8a72.457 72.457 0 0 0 -7.42-8.86 10.617 10.617 0 0 1 -2.79-9.8 7.516 7.516 0 0 1 -4.26-.594c-2.45-1.15-4.17-3.31-9.93-6.52-.14-.08-.28-.15-.42-.22a10.781 10.781 0 0 0 -12.6 17.13 72.457 72.457 0 0 1 7.42 8.86 82.548 82.548 0 0 1 12.14 26.55h30a82.548 82.548 0 0 0 -12.14-26.546z" fill="#41bfbb"/><path d="m312.76 455.55a59.74 59.74 0 0 1 -2.97-31.69 61.156 61.156 0 0 1 1.81-7.45c.4-1.29.83-2.57 1.3-3.87 11.12-30.83 40.06-41.47 47.75-45.58h-30c-7.69 4.11-36.63 14.75-47.75 45.58-.47 1.3-.9 2.58-1.3 3.87a61.156 61.156 0 0 0 -1.81 7.45 59.74 59.74 0 0 0 2.97 31.69 61.826 61.826 0 0 0 57.8 40.15h30a61.826 61.826 0 0 1 -57.8-40.15z" fill="#41bfbb"/><g fill="#79a2cc"><path d="m92.39 439.68a15.867 15.867 0 0 1 15.749-15.864l-29.879-.006a15.87 15.87 0 0 0 0 31.74h30a15.87 15.87 0 0 1 -15.87-15.87z"/><path d="m108.26 239.23h-30a15.87 15.87 0 1 0 0 31.74h30a15.87 15.87 0 0 1 0-31.74z"/><path d="m78.26 86.39h30a15.86 15.86 0 0 1 -.717-31.7l-29.283-.04a15.87 15.87 0 0 0 0 31.74z"/></g><path d="m358.581 354.349a6 6 0 0 1 -5.889-4.885c-1.077-5.693-4.306-18.582-6.382-21.9a6 6 0 1 1 10.169-6.37c4.219 6.737 7.968 25.844 8 26.034a6 6 0 0 1 -4.779 7.012 6.067 6.067 0 0 1 -1.119.109z" fill="#33a09a"/><path d="m375.108 354.349a6 6 0 0 1 -5.962-5.4l-.035-.323c-1.181-11.274 1.305-20.558 7.39-27.593a33.349 33.349 0 0 1 9.168-7.386 6 6 0 0 1 5.793 10.509 21.387 21.387 0 0 0 -5.885 4.727c-5.77 6.671-4.837 15.568-4.531 18.491l.039.375a6 6 0 0 1 -5.37 6.57c-.203.019-.406.03-.607.03z" fill="#33a09a"/><path d="m329.141 143.379a6 6 0 0 1 -1.952-11.675 15.75 15.75 0 0 0 10.287-11.757 6 6 0 1 1 11.761 2.376 27.746 27.746 0 0 1 -18.145 20.728 6 6 0 0 1 -1.951.328z" fill="#f4f8fc"/><path d="m122.465 311.8a6 6 0 0 1 -6-6v-5.828a6 6 0 0 1 12 0v5.828a6 6 0 0 1 -6 6z" fill="#f4f8fc"/><path d="m122.465 399.237a6 6 0 0 1 -6-6v-68.523a6 6 0 0 1 12 0v68.523a6 6 0 0 1 -6 6z" fill="#f4f8fc"/><path d="m365.174 428.63a9.969 9.969 0 1 1 9.969-9.969 5 5 0 0 0 10 0 19.986 19.986 0 0 0 -15.143-19.354v-5.307a5 5 0 0 0 -10 0v5.4a19.956 19.956 0 0 0 5.174 39.234 9.97 9.97 0 1 1 -9.97 9.97 5 5 0 0 0 -10 0 19.987 19.987 0 0 0 14.796 19.261v4.135a5 5 0 0 0 10 0v-4.046a19.957 19.957 0 0 0 -4.826-39.324z" fill="#eadf53"/><path d="m397.96 348.4-66.49-.05a7.663 7.663 0 0 0 -7.67 7.66v3.32a7.681 7.681 0 0 0 6.85 7.63l66.47.04a7.412 7.412 0 0 0 2.71-.5 7.658 7.658 0 0 0 4.96-7.17v-3.32a7.652 7.652 0 0 0 -6.83-7.61z" fill="#f9d438"/><path d="m353.8 359.33v-3.32a7.657 7.657 0 0 1 7.229-7.638l-29.559-.022a7.663 7.663 0 0 0 -7.67 7.66v3.32a7.681 7.681 0 0 0 6.85 7.63h30a7.681 7.681 0 0 1 -6.85-7.63z" fill="#edb740"/></svg>