<svg id="Layer_1" enable-background="new 0 0 128 128" height="512" viewBox="0 0 128 128" width="512" xmlns="http://www.w3.org/2000/svg"><path d="m98.104 105.002v-11.654c0-7.054-2.756-13.473-7.241-18.25-.039-.046-.076-.09-.122-.128-1.942-2.041-4.198-3.78-6.696-5.128-.022-.014-.047-.023-.07-.036-1.895-1.016-3.926-1.808-6.059-2.344-.004-.001-.006-.004-.01-.005-.095-.024-.193-.041-.288-.064-.341-.082-.682-.159-1.028-.228-.09-.018-.18-.032-.27-.048-.315-.059-.631-.117-.95-.165 5.489-2.755 9.602-7.837 11.039-13.954.248.064.498.108.75.108 2.23 0 3.978-2.286 3.978-5.205 0-2.498-1.285-4.521-3.053-5.055v-12.862c0-9.208-7.465-16.673-16.673-16.673h-.457c.229-.581.527-1.245.884-1.826.203-.33.476-.687.761-1.029.553-.662.05-1.669-.812-1.632-1.133.048-2.536.207-3.854.629-2.873.921-4.788 2.505-4.788 2.505s.222-1.356.746-2.624c.2-.483.462-.982.728-1.439.431-.741-.191-1.652-1.033-1.495-1.707.317-4.2.959-6.739 2.243-4.917 2.486-12.936 8.95-12.936 20.461v.88 1.915 10.947c-1.768.534-3.053 2.557-3.053 5.055 0 2.919 1.748 5.205 3.979 5.205.252 0 .502-.044.75-.108 1.438 6.116 5.55 11.199 11.039 13.954-.321.048-.638.107-.956.166-.087.016-.175.03-.262.047-.35.069-.696.148-1.041.23-.092.022-.186.038-.277.061-.004.001-.006.004-.009.005-2.133.536-4.164 1.329-6.059 2.344-.024.013-.048.022-.071.036-2.499 1.349-4.755 3.088-6.697 5.129-.045.037-.082.08-.12.125-4.485 4.777-7.241 11.196-7.241 18.25v11.655c-1.501.906-2.518 2.538-2.518 4.416v5.437c0 2.853 2.32 5.173 5.173 5.173h1.299v1.455c0 2.28 1.854 4.135 4.134 4.135h48.034c2.28 0 4.135-1.854 4.135-4.135v-1.455h1.298c2.853 0 5.173-2.32 5.173-5.173v-5.437c.002-1.876-1.015-3.508-2.517-4.414z" fill="#e6e7e8"/><path d="m83.16 39.697c-.418 0-.815.124-1.176.343v4.163c0 1.14-.101 2.256-.284 3.343.433.346.926.56 1.459.56 1.645 0 2.978-1.883 2.978-4.205s-1.332-4.204-2.977-4.204z" fill="#fff"/><path d="m42.013 44.203v-4.163c-.361-.219-.758-.343-1.176-.343-1.645 0-2.978 1.883-2.978 4.205s1.333 4.205 2.978 4.205c.533 0 1.026-.214 1.459-.56-.182-1.089-.283-2.204-.283-3.344z" fill="#fff"/><path d="m67.413 63.657h-.899c-1.453.336-2.96.531-4.515.531-1.555 0-3.062-.195-4.515-.531h-.899c-14.189 0-25.691 11.502-25.691 25.691v12.243c.508-.22 1.067-.345 1.655-.345h2.299v-19.941c0-1.731 1.403-3.135 3.135-3.135h48.034c1.731 0 3.135 1.403 3.135 3.135v19.941h2.298c.588 0 1.146.124 1.654.344v-12.242c0-14.189-11.502-25.691-25.691-25.691z" fill="#fff"/><path d="m32.55 101.246h2.299v-19.941c0-1.731 1.403-3.135 3.135-3.135h13.221c-3.556-2.751-6.045-6.818-6.718-11.483-8.089 4.323-13.587 12.844-13.587 22.657v12.244c.506-.218 1.063-.342 1.65-.342z" fill="#0089ef"/><path d="m89.152 81.305v19.941h2.298c.589 0 1.147.125 1.655.345v-12.247c0-9.812-5.507-18.343-13.596-22.666-.668 4.668-3.16 8.739-6.72 11.492h13.227c1.732.001 3.136 1.404 3.136 3.135z" fill="#0089ef"/><path d="m62.2 67.938h-.402l-3.58 5.193 1.649 4.286h4.264l1.649-4.286z" fill="#fa759e"/><path d="m79.705 31.366-5.108-8.21c-2.024-2.769-5.248-4.406-8.678-4.406h-7.84c-3.43 0-6.654 1.637-8.678 4.406l-5.108 8.21c-1.49 2.395-2.28 5.159-2.28 7.98v4.857c0 11.038 8.948 19.986 19.986 19.986 11.038 0 19.986-8.948 19.986-19.986v-4.857c0-2.821-.79-5.585-2.28-7.98z" fill="#fff"/><path d="m68.233 63.678-6.234 3.968 5.037 7.307 6.628-10.526c-1.746-.437-3.564-.691-5.431-.749z" fill="#d4fbff"/><path d="m50.334 64.427 6.628 10.526 5.037-7.307-6.234-3.968c-1.867.058-3.685.312-5.431.749z" fill="#d4fbff"/><path d="m61.999 64.188c-2.68 0-5.234-.531-7.569-1.488v.122l7.569 4.823 7.577-4.823v-.125c-2.337.959-4.894 1.491-7.577 1.491z" fill="#fff"/><path d="m86.017 78.171h-48.034c-1.731 0-3.135 1.403-3.135 3.135v36.178c0 1.731 1.403 3.135 3.135 3.135h48.034c1.731 0 3.135-1.403 3.135-3.135v-36.179c0-1.731-1.404-3.134-3.135-3.134z" fill="#6dc9f7"/><path d="m86.017 78.171h-48.034c-1.731 0-3.134 1.403-3.134 3.135v2.951c0-1.731 1.403-3.135 3.134-3.135h48.034c1.731 0 3.135 1.403 3.135 3.135v-2.951c0-1.732-1.404-3.135-3.135-3.135z" fill="#fff"/><path d="m63.339 91.21-1.339 1.339-1.339-1.339c-2.515-2.515-6.646-2.77-9.236-.332-2.679 2.523-2.727 6.742-.143 9.326l1.531 1.531 6.944 6.944c1.238 1.238 3.246 1.238 4.484 0l6.944-6.944 1.531-1.531c2.584-2.584 2.536-6.803-.143-9.326-2.588-2.438-6.719-2.183-9.234.332z" fill="#fa759e"/><path d="m91.45 101.246h-2.718c-3.806 0-6.891 3.085-6.891 6.891s3.085 6.891 6.891 6.891h2.718c2.305 0 4.173-1.868 4.173-4.173v-5.436c0-2.304-1.868-4.173-4.173-4.173z" fill="#fff"/><path d="m35.268 101.246h-2.718c-2.305 0-4.173 1.868-4.173 4.173v5.436c0 2.305 1.868 4.173 4.173 4.173h2.718c3.806 0 6.891-3.085 6.891-6.891s-3.085-6.891-6.891-6.891z" fill="#fff"/><g fill="#3a2c60"><path d="m53.182 39.407c-1.104 0-1.999.895-1.999 1.999s.895 1.999 1.999 1.999 1.999-.895 1.999-1.999-.895-1.999-1.999-1.999z"/><path d="m70.816 39.407c-1.104 0-1.999.895-1.999 1.999s.895 1.999 1.999 1.999 1.999-.895 1.999-1.999-.895-1.999-1.999-1.999z"/><path d="m61.999 51.301c1.805 0 3.273-1.468 3.273-3.272v-1.333c0-.553-.448-1-1-1s-1 .447-1 1v1.333c0 .701-.571 1.272-1.273 1.272s-1.273-.571-1.273-1.272v-1.333c0-.553-.448-1-1-1s-1 .447-1 1v1.333c0 1.804 1.468 3.272 3.273 3.272z"/><path d="m69.276 37.649 3.914.682c.058.01.116.015.172.015.477 0 .899-.343.984-.828.095-.544-.27-1.063-.814-1.157l-3.914-.682c-.543-.09-1.062.271-1.157.813-.094.544.27 1.063.815 1.157z"/><path d="m54.379 35.679-3.914.682c-.544.095-.909.613-.814 1.157.085.485.507.828.984.828.057 0 .115-.005.172-.015l3.914-.682c.544-.095.909-.613.814-1.157-.094-.543-.612-.903-1.156-.813z"/><path d="m67.225 54.082c.332-.438.246-1.059-.189-1.394-.437-.335-1.063-.252-1.4.181-.053.067-1.318 1.655-3.636 1.655-2.363 0-3.563-1.558-3.621-1.637-.325-.443-.946-.543-1.392-.22-.448.322-.549.948-.226 1.396.073.101 1.815 2.461 5.239 2.461 3.336 0 5.149-2.341 5.225-2.442z"/><path d="m89.152 94.646c.552 0 1-.447 1-1v-4.465c0-.553-.448-1-1-1s-1 .447-1 1v4.465c0 .552.448 1 1 1z"/><path d="m94.104 101.002v-11.654c0-7.056-2.755-13.478-7.244-18.254-.039-.046-.077-.088-.123-.126-1.934-2.031-4.181-3.759-6.667-5.103-.047-.032-.098-.054-.151-.078-1.865-.993-3.862-1.77-5.956-2.3-.021-.007-.035-.024-.056-.029-.112-.028-.228-.043-.34-.069-.573-.136-1.153-.256-1.74-.354-.118-.019-.236-.035-.354-.052-.041-.006-.083-.012-.124-.019 5.499-2.752 9.621-7.838 11.061-13.962.247.065.498.105.751.105 2.23 0 3.978-2.286 3.978-5.205 0-2.498-1.285-4.521-3.053-5.055v-12.863c0-9.208-7.465-16.673-16.673-16.673h-.457c.229-.581.527-1.245.884-1.826.203-.33.476-.687.761-1.029.553-.662.05-1.669-.812-1.632-1.133.048-2.536.207-3.854.629-2.873.921-4.788 2.505-4.788 2.505s.222-1.356.746-2.624c.2-.483.462-.982.728-1.439.431-.741-.191-1.652-1.033-1.495-1.707.317-4.2.959-6.739 2.243-4.917 2.486-12.936 8.95-12.936 20.461v.88 1.915 10.947c-1.768.534-3.053 2.557-3.053 5.055 0 2.919 1.748 5.205 3.979 5.205.253 0 .503-.04.751-.105 1.44 6.123 5.561 11.209 11.061 13.962-.041.006-.082.012-.124.018-.118.018-.236.033-.354.053-.587.098-1.167.218-1.741.354-.112.026-.227.041-.339.069-.021.005-.035.023-.056.029-2.095.53-4.091 1.307-5.957 2.3-.053.024-.104.046-.151.078-2.486 1.345-4.735 3.073-6.669 5.104-.045.037-.082.079-.121.124-4.489 4.776-7.244 11.198-7.244 18.255v11.655c-1.501.906-2.518 2.538-2.518 4.416v5.437c0 2.853 2.32 5.173 5.173 5.173h1.299v1.455c0 2.28 1.854 4.135 4.134 4.135h48.034c2.28 0 4.135-1.854 4.135-4.135v-1.455h1.298c2.853 0 5.173-2.32 5.173-5.173v-5.437c0-1.878-1.017-3.51-2.519-4.416zm-18.729-23.831c2.362-2.424 4.081-5.484 4.852-8.921 1.506.918 2.901 1.997 4.173 3.205-2.423 1.341-4.352 3.341-5.62 5.715h-3.405zm-30.158 0c-1.268-2.375-3.197-4.375-5.619-5.715 1.272-1.208 2.668-2.287 4.173-3.205.772 3.436 2.491 6.497 4.852 8.92zm6.378 0c-3.044-2.438-5.224-5.921-5.977-9.936 1.356-.676 2.783-1.228 4.266-1.646l6.232 9.897c.179.284.489.46.825.467h.021c.329 0 .637-.161.823-.433l.18-.261.735 1.911h-7.105zm.46-12.09c.537-.099 1.077-.183 1.623-.247.012-.001.023-.003.035-.004.589-.068 1.182-.115 1.778-.141l5.096 3.243-3.587 5.205-5.059-8.035c.038-.008.076-.014.114-.021zm18.266-.247c.545.063 1.085.147 1.62.246l.117.021-5.059 8.035-3.587-5.205 5.096-3.243c.596.026 1.189.073 1.778.141.011.002.023.004.035.005zm-9.767 11.583-1.213-3.154 2.658-3.856 2.658 3.856-1.213 3.153h-2.89zm1.445-9.957-2.176-1.385c.716.074 1.441.114 2.176.114s1.46-.04 2.176-.114zm4.034 8.8.18.261c.187.271.495.433.823.433h.021c.336-.007.646-.183.825-.467l6.232-9.897c1.483.419 2.91.971 4.266 1.646-.753 4.014-2.932 7.498-5.976 9.936h-7.106zm19.106-31.359c0 1.905-1.143 3.578-2.349 3.136.018-.129.024-.258.04-.387.023-.2.044-.4.062-.601.055-.619.094-1.237.094-1.846v-3.492c1.105-.175 2.153 1.389 2.153 3.19zm-43.931 3.136c-1.208.444-2.349-1.231-2.349-3.136 0-1.736.906-3.204 1.979-3.204.059 0 .117.005.176.014v3.492c0 .611.038 1.229.094 1.848.018.2.038.399.061.598.015.13.022.259.039.388zm1.806-2.834v-4.857c0-2.637.736-5.213 2.128-7.451l5.066-8.148c1.83-2.502 4.772-3.996 7.871-3.996h7.84c3.099 0 6.041 1.494 7.829 3.935l5.107 8.21c1.393 2.238 2.129 4.814 2.129 7.451v4.857c0 10.469-8.517 18.985-18.986 18.985s-18.984-8.517-18.984-18.986zm-11.119 45.145c0-6.286 2.365-12.028 6.247-16.391 1.968.977 3.594 2.441 4.756 4.214h-4.915c-2.28 0-4.134 1.854-4.134 4.135v18.94h-1.299c-.224 0-.438.038-.655.066zm-2.518 21.508v-5.437c0-1.75 1.423-3.173 3.173-3.173h2.718c3.249 0 5.891 2.643 5.891 5.892 0 3.248-2.643 5.891-5.891 5.891h-2.718c-1.75-.001-3.173-1.423-3.173-3.173zm56.64 8.762h-48.034c-1.177 0-2.134-.958-2.134-2.135v-1.484c4.08-.299 7.311-3.707 7.311-7.861 0-4.156-3.231-7.563-7.311-7.862v-18.97c0-1.177.958-2.135 2.134-2.135h48.034c1.177 0 2.135.958 2.135 2.135v2.95c0 .553.448 1 1 1s1-.447 1-1v-2.95c0-2.28-1.855-4.135-4.135-4.135h-4.917c1.163-1.773 2.788-3.238 4.757-4.214 3.882 4.363 6.247 10.105 6.247 16.391v10.965c-.216-.028-.43-.066-.654-.066h-1.298v-1.559c0-.553-.448-1-1-1s-1 .447-1 1v1.588c-4.08.299-7.311 3.706-7.311 7.862 0 4.155 3.231 7.562 7.311 7.861v1.484c0 1.177-.958 2.135-2.135 2.135zm8.606-8.762c0 1.75-1.423 3.173-3.173 3.173h-2.718c-3.249 0-5.891-2.643-5.891-5.891 0-3.249 2.643-5.892 5.891-5.892h2.718c1.75 0 3.173 1.423 3.173 3.173z"/></g></svg>