<svg height="512" viewBox="0 0 512 512" width="512" xmlns="http://www.w3.org/2000/svg" xmlns:xlink="http://www.w3.org/1999/xlink"><linearGradient id="a" gradientUnits="userSpaceOnUse" x1="-77.397" x2="446.708" y1="413.397" y2="-110.708" data-name="New Gradient Swatch 1"><stop offset="0" stop-color="#003f8a"/><stop offset=".518" stop-color="#00d7df"/><stop offset="1" stop-color="#006df0"/></linearGradient><linearGradient id="c" x1="3.536" x2="527.642" xlink:href="#a" y1="494.331" y2="-29.774"/><g><path d="m128 184h192a8 8 0 0 0 8-8v-128a8 8 0 0 0 -8-8h-192a8 8 0 0 0 -8 8v128a8 8 0 0 0 8 8zm8-128h176v112h-176z" fill="url(#a)"/><path d="m250.343 74.343-16 16a24.009 24.009 0 1 0 11.315 11.315l16-16a8 8 0 1 0 -11.314-11.314zm-26.343 45.657a8 8 0 1 1 8-8 8.009 8.009 0 0 1 -8 8z" fill="url(#a)"/><path d="m445.66 114.34-32-32a8 8 0 0 0 -11.32 11.32l29.66 29.65v20.69h-32a16.021 16.021 0 0 0 -16 16v96a16.021 16.021 0 0 0 16 16h8v16a8 8 0 0 0 8 8h16v124a4 4 0 0 1 -4 4h-19.67a18.532 18.532 0 0 1 -.33-4v-96a20.02 20.02 0 0 0 -20-20h-4v-16a8 8 0 0 0 -8-8h-16v-244a28.031 28.031 0 0 0 -28-28h-216a28.031 28.031 0 0 0 -28 28v428h-16a8 8 0 0 0 -8 8v24a8 8 0 0 0 8 8h304a8 8 0 0 0 8-8v-24a8 8 0 0 0 -8-8h-16v-120h16a8 8 0 0 0 8-8v-16h4a4 4 0 0 1 4 4v96c0 18.05 11.19 20 16 20h20a20.02 20.02 0 0 0 20-20v-300a8.008 8.008 0 0 0 -2.34-5.66zm-341.66-78.34a12.01 12.01 0 0 1 12-12h216a12.01 12.01 0 0 1 12 12v164h-240zm0 180h240v192h-240zm0 208h240v40h-240zm264 56v8h-288v-8zm0-152h-8v-32h8zm64-48h-8v-8h8zm0-24h-32v-96h32z" fill="url(#c)"/></g></svg>