<svg id="Capa_1" enable-background="new 0 0 510 510" height="512" viewBox="0 0 510 510" width="512" xmlns="http://www.w3.org/2000/svg" xmlns:xlink="http://www.w3.org/1999/xlink"><linearGradient id="lg1"><stop offset="0" stop-color="#537983"/><stop offset="1" stop-color="#3e5959"/></linearGradient><linearGradient id="SVGID_1_" gradientUnits="userSpaceOnUse" x1="205.07" x2="317.354" xlink:href="#lg1" y1="153.055" y2="402.808"/><linearGradient id="SVGID_2_" gradientUnits="userSpaceOnUse" x1="143.416" x2="337.64" y1="146.25" y2="340.474"><stop offset="0" stop-color="#eef5f6"/><stop offset="1" stop-color="#cbe5e8"/></linearGradient><linearGradient id="SVGID_3_" gradientUnits="userSpaceOnUse" x1="255" x2="255" xlink:href="#lg1" y1="404.754" y2="463.519"/><linearGradient id="SVGID_4_" gradientUnits="userSpaceOnUse" x1="255" x2="255" xlink:href="#lg1" y1="444.658" y2="468.458"/><linearGradient id="SVGID_5_" gradientUnits="userSpaceOnUse" x1="255" x2="255" xlink:href="#lg1" y1="449.346" y2="432.831"/><linearGradient id="SVGID_6_" gradientUnits="userSpaceOnUse" x1="255" x2="255" xlink:href="#lg1" y1="373.279" y2="424.698"/><linearGradient id="SVGID_7_" gradientUnits="userSpaceOnUse" x1="395.118" x2="160.118" y1="296.155" y2="179.155"><stop offset="0" stop-color="#3e5959" stop-opacity="0"/><stop offset="1" stop-color="#384949"/></linearGradient><linearGradient id="SVGID_8_" gradientUnits="userSpaceOnUse" x1="220.64" x2="299.097" y1="229.227" y2="307.684"><stop offset="0" stop-color="#c1e9af"/><stop offset="1" stop-color="#4fc123"/></linearGradient><linearGradient id="lg2"><stop offset="0" stop-color="#ffe177"/><stop offset="1" stop-color="#fe9738"/></linearGradient><linearGradient id="SVGID_9_" gradientUnits="userSpaceOnUse" x1="205" x2="317.071" xlink:href="#lg2" y1="78.697" y2="190.768"/><linearGradient id="SVGID_10_" gradientTransform="matrix(-1 0 0 -1 2638 -4004)" gradientUnits="userSpaceOnUse" x1="2344.111" x2="2431.278" xlink:href="#lg2" y1="-4171.586" y2="-4084.419"/><linearGradient id="SVGID_11_" gradientUnits="userSpaceOnUse" x1="318.193" x2="227.693" y1="171.076" y2="128.076"><stop offset="0" stop-color="#fe9738" stop-opacity="0"/><stop offset="1" stop-color="#f46700"/></linearGradient><linearGradient id="SVGID_12_" gradientUnits="userSpaceOnUse" x1="235.389" x2="281.186" y1="107.874" y2="153.671"><stop offset="0" stop-color="#fe9738"/><stop offset="1" stop-color="#f46700"/></linearGradient><g><g><g><g><path d="m456.744 114.068h-403.488c-8.838 0-16.003 7.165-16.003 16.003v271.528h435.494v-271.527c0-8.839-7.165-16.004-16.003-16.004z" fill="url(#SVGID_1_)"/><path d="m440.741 129.459h-371.482c-8.887 0-16.091 7.204-16.091 16.091v224.568c0 8.887 7.204 16.091 16.091 16.091h371.482c8.887 0 16.091-7.204 16.091-16.091v-224.568c-.001-8.887-7.205-16.091-16.091-16.091z" fill="url(#SVGID_2_)"/><g fill="#3e5959"><path d="m173.507 304.578h-96.894c-3.05 0-5.522-2.472-5.522-5.522v-7.531c0-3.05 2.472-5.522 5.522-5.522h96.894c3.05 0 5.522 2.472 5.522 5.522v7.531c0 3.05-2.472 5.522-5.522 5.522z"/><path d="m173.507 335.705h-96.894c-3.05 0-5.522-2.472-5.522-5.522v-7.531c0-3.05 2.472-5.522 5.522-5.522h96.894c3.05 0 5.522 2.472 5.522 5.522v7.531c0 3.049-2.472 5.522-5.522 5.522z"/><path d="m124.307 366.831h-47.694c-3.05 0-5.522-2.472-5.522-5.522v-7.531c0-3.05 2.472-5.522 5.522-5.522h47.694c3.05 0 5.522 2.472 5.522 5.522v7.531c0 3.05-2.472 5.522-5.522 5.522z"/></g><g><path d="m469.851 399.507h-429.702c-4.273 0-8.253 2.172-10.566 5.765l-24.871 38.642c-1.657 2.575.191 5.963 3.253 5.963h494.069c3.062 0 4.91-3.388 3.253-5.963l-24.871-38.643c-2.312-3.593-6.292-5.764-10.565-5.764z" fill="url(#SVGID_3_)"/><path d="m494.259 480.303h-478.518c-8.694 0-15.741-7.047-15.741-15.741v-9.444c0-8.693 7.047-15.741 15.741-15.741h478.518c8.693 0 15.741 7.047 15.741 15.741v9.444c0 8.694-7.047 15.741-15.741 15.741z" fill="url(#SVGID_4_)"/><path d="m229.815 429.234h50.37c5.216 0 9.444 4.228 9.444 9.444 0 5.216-4.228 9.444-9.444 9.444h-50.37c-5.216 0-9.444-4.228-9.444-9.444-.001-5.216 4.228-9.444 9.444-9.444z" fill="url(#SVGID_5_)"/><path d="m459.184 417.996-10.401-18.489h-387.566l-10.401 18.489c-1.947 3.462.554 7.739 4.526 7.739h399.316c3.972 0 6.474-4.277 4.526-7.739z" fill="url(#SVGID_6_)"/></g></g></g></g><path d="m352.883 114.068h-194.068c-.86 5.25-1.315 10.635-1.315 16.128 0 29.483 12.897 55.944 33.346 74.08l36.1 36.311v16.872h-25.952c-11.331 0-18.113 12.602-11.871 22.059l55.505 84.099c1.645 2.492 3.886 4.233 6.363 5.267l32.421 32.715h189.334v-167.666z" fill="url(#SVGID_7_)"/><path d="m243.129 362.117-55.505-84.099c-6.241-9.457.541-22.059 11.871-22.059h25.952v-67.969c0-7.563 6.131-13.693 13.693-13.693h31.721c7.563 0 13.693 6.131 13.693 13.693v67.969h25.952c11.331 0 18.113 12.602 11.871 22.059l-55.505 84.099c-5.623 8.518-18.121 8.518-23.743 0z" fill="url(#SVGID_8_)"/><g><circle cx="255" cy="128.697" fill="url(#SVGID_9_)" r="99"/><circle cx="255" cy="128.697" fill="url(#SVGID_10_)" r="77"/><path d="m351.613 150.373-64.723-64.724c-3.326-4.997-12.234-7.043-19.468-7.782-.521-.676-5.415-5.365-5.707-5.725-.988-1.216-2.874-2.109-4.763-2.109-3.171 0-5.478 1.874-5.478 3.892v4.036c-15.28 2.162-28.83 10.955-28.83 29.262 0 8.744 3.499 14.733 8.589 19.155 0 0 20.069 20.115 20.241 20.303v13.589c-10.667-1.874-15.568-10.379-21.623-10.379-5.478 0-9.802 7.207-9.802 12.108 0 3.585 2.14 7.124 5.763 10.148l52.726 52.726c36.385-8.874 64.888-37.851 73.075-74.5z" fill="url(#SVGID_11_)"/><path d="m261.991 117.165v-21.046c9.37.721 12.109 5.334 16.865 5.334 6.343 0 8.937-7.928 8.937-11.82 0-9.946-16.866-12.253-25.803-12.541v-3.604c0-2.018-2.739-3.892-5.478-3.892-3.171 0-5.478 1.874-5.478 3.892v4.036c-15.28 2.162-28.83 10.955-28.83 29.262 0 18.451 15.568 24.649 28.83 29.695v23.352c-10.667-1.874-15.568-10.379-21.623-10.379-5.478 0-9.802 7.207-9.802 12.108 0 9.226 14.127 18.163 31.425 18.739v3.604c0 2.018 2.306 3.892 5.478 3.892 2.739 0 5.478-1.874 5.478-3.892v-4.18c16.865-2.739 28.398-13.55 28.398-31.424.001-19.46-15.28-26.235-28.397-31.136zm-9.514-3.46c-5.478-2.306-9.226-4.901-9.226-9.081 0-3.46 2.739-6.775 9.226-8.072zm8.073 45.984v-19.316c5.189 2.45 8.792 5.478 8.792 10.235.001 5.189-3.892 7.928-8.792 9.081z" fill="url(#SVGID_12_)"/></g></g></svg>