<svg id="Capa_1" enable-background="new 0 0 512 512" height="512" viewBox="0 0 512 512" width="512" xmlns="http://www.w3.org/2000/svg"><g><path d="m345.121 430.577c-14.202-4.057-24.121-17.207-24.121-31.977v-3.6c0-8.284-6.716-15-15-15h-100c-8.284 0-15 6.716-15 15v3.6c0 14.771-9.919 27.92-24.121 31.978-27.013 7.717-45.879 32.729-45.879 60.822v5.6c0 8.284 6.716 15 15 15h240c8.284 0 15-6.716 15-15v-5.6c0-28.093-18.866-53.105-45.879-60.823z" fill="#39326c"/><path d="m345.121 430.577c-14.202-4.057-24.121-17.207-24.121-31.977v-3.6c0-8.284-6.716-15-15-15h-50v132h120c8.284 0 15-6.716 15-15v-5.6c0-28.093-18.866-53.105-45.879-60.823z" fill="#2d2755"/><path d="m457 0h-402c-30.327 0-55 24.673-55 55v300c0 30.327 24.673 55 55 55h402c30.327 0 55-24.673 55-55v-300c0-30.327-24.673-55-55-55z" fill="#51489a"/><path d="m457 0h-201v410h201c30.327 0 55-24.673 55-55v-300c0-30.327-24.673-55-55-55z" fill="#39326c"/><path d="m30 55c0-13.785 11.215-25 25-25h402c13.785 0 25 11.215 25 25v265h-452z" fill="#eae7ea"/><path d="m457 30h-201v290h226v-265c0-13.785-11.215-25-25-25z" fill="#d5d3ea"/><path d="m106 230h60c8.284 0 15-6.716 15-15v-140c0-8.284-6.716-15-15-15h-60c-8.284 0-15 6.716-15 15v140c0 8.284 6.716 15 15 15z" fill="#ff7d47"/><path d="m136 230h30c8.284 0 15-6.716 15-15v-140c0-8.284-6.716-15-15-15h-30z" fill="#ff3838"/><path d="m226 230h60c8.284 0 15-6.716 15-15v-100c0-8.284-6.716-15-15-15h-60c-8.284 0-15 6.716-15 15v100c0 8.284 6.716 15 15 15z" fill="#8cbcff"/><path d="m346 230h60c8.284 0 15-6.716 15-15v-60c0-8.284-6.716-15-15-15h-60c-8.284 0-15 6.716-15 15v60c0 8.284 6.716 15 15 15z" fill="#ffe278"/><path d="m376 230h30c8.284 0 15-6.716 15-15v-60c0-8.284-6.716-15-15-15h-30z" fill="#ffc178"/><path d="m436 260h-360c-8.284 0-15 6.716-15 15s6.716 15 15 15h360c8.284 0 15-6.716 15-15s-6.716-15-15-15z" fill="#51489a"/><path d="m301 215v-100c0-8.284-6.716-15-15-15h-30v130h30c8.284 0 15-6.716 15-15z" fill="#7c84e8"/><path d="m436 260h-180v30h180c8.284 0 15-6.716 15-15s-6.716-15-15-15z" fill="#39326c"/></g></svg>